<?xml version="1.0" encoding="utf-8"?>
<!-- Generator: Adobe Illustrator 24.0.1, SVG Export Plug-In . SVG Version: 6.00 Build 0)  -->
<svg version="1.1" id="Layer_1" xmlns="http://www.w3.org/2000/svg" xmlns:xlink="http://www.w3.org/1999/xlink" x="0px" y="0px"
	 viewBox="0 0 1200 800" style="enable-background:new 0 0 1200 800;" xml:space="preserve">
<style type="text/css">
	.st0{fill:#7299D0;}
</style>
<path class="st0" d="M1276.29,695.65c-84.37-63.25-149.28,31.69-255.48-5.16c-48.06-16.68-76.29-40-107.74-131.61
	c-29.2-85.08-144.05-144.31-238.06-147.1c-152.26-4.52-182.16,91.49-313.55,63.87c-85.06-17.88-177.99-87.64-188.39-166.45
	c-8.2-62.14,39.86-92.3,21.94-163.23c-14.87-58.85-61.63-92.15-73.55-100.65C69.33,8.2-11.97-10.92-63.71,19.52
	c-51.67,30.39-64.34,104.6-58.71,299.35c8.3,287.28,12.45,430.92,50.32,497.42c229.02,402.13,1358.92,229.28,1401.94,6.45
	C1337.27,784.21,1315.86,725.31,1276.29,695.65z"/>
</svg>
