<svg id="Capa_1" enable-background="new 0 0 512.002 512.002" height="512" viewBox="0 0 512.002 512.002" width="512" xmlns="http://www.w3.org/2000/svg"><g><path d="m467.002 166.001c-19.557 0-36.239 12.539-42.43 30h-36.077c-6.97-34.191-37.274-60-73.493-60-23.677 0-45.937 11.305-60 30h-15v-30h-30v30c-10.492 0-19.508 0-30 0v-30h-30v30c-10.492 0-19.508 0-30 0v-30h-30v31.057c-51.708 7.305-92.803 53.222-89.852 109.567 2.957 56.463 52.943 99.375 109.944 99.375h219.908v-15c0-5.137-.519-10.151-1.507-15h138.507c24.813 0 45-20.187 45-45v-90c0-24.812-20.187-44.999-45-44.999zm-356.908 180c-42.056 0-77.937-31.825-79.985-70.944-1.58-30.172 14.577-56.639 39.089-70.003-5.858 10.681-9.196 22.931-9.196 35.947 0 41.355 33.645 75 75 75h120c19.556 0 36.239 12.539 42.43 30zm371.908-90h-122v30h122v15c0 8.271-6.729 15-15 15h-152.036c-10.824-14.388-26.699-24.764-44.965-28.486v-31.514h-30v30h-30v-30h-30v30h-30v-30h-30v27.42c-17.459-6.192-30-22.865-30-42.42 0-24.813 20.187-45 45-45h136.679c1.729-1.9 12.121-30 43.321-30 24.813 0 45 20.187 45 45v15h92v-15c0-8.271 6.729-15 15-15s15 6.729 15 15v45z"/><path d="m300.002 196.001h30v30h-30z"/></g></svg>