<svg id="Capa_1" enable-background="new 0 0 512 512" height="512" viewBox="0 0 512 512" width="512" xmlns="http://www.w3.org/2000/svg"><g><path d="m460.276 227.228c22.036-13.01 35.724-36.854 35.724-62.228v-8.028l-6.68-4.453c-46.054-30.702-52.27-77.071-53.373-79.573-1.094-40.406-34.28-72.946-74.947-72.946-42.179 0-94.715 41.637-122.276 66.457-39.568 35.631-75.41 79.038-95.098 114.925l-29.89 7.472c-57.034 14.259-97.736 66.619-97.736 126.179 0 23.976 9.337 46.517 26.291 63.471 18.129 18.13 22.732 46.908 11.193 69.984l-7.484 14.971v48.541h150v-45c0-17.419-9.947-32.558-24.461-40.034 4.32-12.175 7.016-24.815 8.103-37.572 37.47-4.208 72.232-16.609 100.54-35.863 9.532 13.858 21.62 25.96 35.818 35.487v35.551c-17.461 6.191-30 22.874-30 42.43v45h75c24.813 0 45-20.187 45-45v-202.146c0-10.482-.75-20.91-2.23-31.228 18.889 6.265 39.233 3.8 56.506-6.397zm-84.276 239.772c0 8.271-6.729 15-15 15h-45v-15c0-8.271 6.729-15 15-15h15v-79.945c-.896-.871-60-27.934-60-96.369v-35.686h-30v35.686c0 17.835 3.481 35.196 9.92 51.229-24.006 17.059-54.018 28.226-86.714 32.325-1.971-17.223-6.896-34.161-14.79-49.948l-26.832 13.417c16.841 33.683 16.841 73.9 0 107.583l-10.855 21.708h24.271c8.271 0 15 6.729 15 15v15h-90v-11.459l4.317-8.636c17.232-34.463 10.318-77.481-16.813-104.614-11.287-11.288-17.504-26.296-17.504-42.258 0-45.382 31.547-86.208 75.012-97.074l43.013-10.753c.926-1.386 24.376-55.063 94.773-118.456 40.852-36.788 79.059-58.75 102.202-58.75 20.283 0 37.468 13.491 43.069 31.969-16.958 3.991-32.12 13.879-42.744 28.033-.107-.002-.217-.002-.325-.002-24.813 0-45 20.187-45 45 0 21.289 14.858 39.172 34.751 43.823 3.644 10.837 9.298 20.781 16.591 29.374 5.742 18.356 8.658 37.4 8.658 56.656zm-1.34-317.961c-13.144.736-13.215.605-14.949.907-7.67-.657-13.711-7.109-13.711-14.946 0-8.228 6.659-14.929 14.87-15 .935.15 15.045 3.993 15.177 4.028l5.629-10.346c6.075-11.166 16.31-19.099 28.078-22.217 9.307 32.351 28.786 60.629 55.618 80.834-2.102 12.062-9.379 22.618-20.348 29.094-12.269 7.242-26.216 7.581-38.268.932-30.558-16.859-29.943-47.463-32.096-53.286z"/></g></svg>