<?xml version="1.0"?>
<svg xmlns="http://www.w3.org/2000/svg" id="Capa_1" enable-background="new 0 0 512 512" height="512px" viewBox="0 0 512 512" width="512px" class=""><g><g><path d="m480.714 130.575c-4.35-63.907-57.731-114.575-122.723-114.575h-116.991v15c0 73.327-28.534 142.266-80.353 194.139-10.593 12.831-61.482 45.712-69.518 110.432-6.112 49.22 13.734 98.988 54.431 130.429h-10.56c-57.897 0-105-47.103-105-105 0-82.336 28.678-121.554 53.979-156.154 18.524-25.332 36.021-49.26 36.021-83.846 0-57.897-47.103-105-105-105h-15v30h15c41.354 0 75 33.645 75 75 0 24.789-13.344 43.036-30.237 66.138-26.626 36.411-59.763 81.727-59.763 173.862 0 74.439 60.561 135 135 135h301c24.813 0 45-20.187 45-45 0-20.738-14.105-38.235-33.223-43.426 2.15-5.645 3.223-11.611 3.223-17.949 0-35.944-25.893-65.955-60.004-72.362-.009-16.279-.031-24.763-.007-61.263h.011c67.851 0 121-32.944 121-75 0-18.862-11.037-36.542-31.286-50.425zm-44.714 305.425c8.271 0 15 6.729 15 15s-6.729 15-15 15h-64.612c20.808-10.951 39.202-19.83 52.978-30zm-45-210c-10.629 0-16.596-.884-29.987-1.875 0 0-.009 89.553-.007 92.844-10.909 1.318-20.889 3.929-30.006 7.48v-68.449h-30v85.251c-26.197 19.659-42.212 46.28-52.085 62.697-2.104 3.5-3.922 6.522-5.396 8.731l24.962 16.641c1.86-2.791 3.845-6.09 6.143-9.911 15.429-25.655 44.149-73.409 102.751-73.409 24.055 0 43.625 19.57 43.625 43.625 0 26-50.523 37.97-109.497 76.375-21.421 0-51.224 0-78.224 0-65.877 0-120.999-57.31-112.378-126.732 6.454-51.975 50.367-80.412 60.637-92.597l.216-.212c54.721-54.721 85.298-126.746 88.882-200.459h87.355c26.998 0 51.342 11.567 68.348 30h-95.339v30c33.084 0 60 26.916 60 60zm30-2.746v-57.254c0-23.029-8.694-44.066-22.973-60h46.915c3.91 10.264 6.058 21.389 6.058 33.009v8.617c2.35 1.793 31 14.698 31 33.375 0 22.836-36.322 37.663-61 42.253z" data-original="#000000" class="active-path" data-old_color="#000000" fill="#FFFFFF"/></g></g> </svg>
