<?xml version="1.0"?>
<svg xmlns="http://www.w3.org/2000/svg" height="512px" viewBox="0 0 512 512" width="512px"><g><path d="m276 512h-40c-33.085938 0-60-26.914062-60-60v-117h-116c-33.085938 0-60-26.914062-60-60v-40c0-33.085938 26.914062-60 60-60h116v-115c0-33.085938 26.914062-60 60-60h40c33.085938 0 60 26.914062 60 60v115h116c33.085938 0 60 26.914062 60 60v40c0 33.085938-26.914062 60-60 60h-116v17c0 11.046875-8.953125 20-20 20s-20-8.953125-20-20v-37c0-11.046875 8.953125-20 20-20h136c11.027344 0 20-8.972656 20-20v-40c0-11.027344-8.972656-20-20-20h-136c-11.046875 0-20-8.953125-20-20v-135c0-11.027344-8.972656-20-20-20h-40c-11.027344 0-20 8.972656-20 20v135c0 11.046875-8.953125 20-20 20h-136c-11.027344 0-20 8.972656-20 20v40c0 11.027344 8.972656 20 20 20h136c11.046875 0 20 8.953125 20 20v137c0 11.027344 8.972656 20 20 20h40c11.027344 0 20-8.972656 20-20 0-11.046875 8.953125-20 20-20s20 8.953125 20 20c0 33.085938-26.914062 60-60 60zm0 0" data-original="#000000" class="active-path" data-old_color="#000000" fill="#D5D51D"/></g> </svg>
