<?xml version="1.0" encoding="utf-8"?>
<!-- Generator: Adobe Illustrator 24.0.1, SVG Export Plug-In . SVG Version: 6.00 Build 0)  -->
<svg version="1.1" id="Layer_1" xmlns="http://www.w3.org/2000/svg" xmlns:xlink="http://www.w3.org/1999/xlink" x="0px" y="0px"
	 viewBox="0 0 1200 200" style="enable-background:new 0 0 1200 200;" xml:space="preserve">
<style type="text/css">
	.st0{fill:#1D437E;stroke:#000000;stroke-miterlimit:10;}
</style>
<path class="st0" d="M-21.11,202.19c53.83-28.79,136.17-62.64,236.81-61.43c89.25,1.07,113.74,28.77,198.16,35.67
	c143.27,11.71,157.74-61.11,329.82-85.65c194.63-27.75,264.32,52.82,378.62-14.42c86.71-51.01,103.43-130.81,140.7-120.88
	c63.11,16.81,49.1,254.66,48.43,265.1c-5.63,87.42-10.07,133.14-31.71,172.4c-68.36,124.06-314.86,50.73-697.54,68.37
	c-429.57,19.8-649.89,136.68-763.93,5.94c-6.18-7.08-64.52-75.46-45.58-144.66C-209.47,257.42-128.15,210.27-21.11,202.19z"/>
<path class="st0" d="M1704.91,117.97"/>
</svg>
