<?xml version="1.0"?>
<svg xmlns="http://www.w3.org/2000/svg" height="512px" viewBox="-6 0 512 512" width="512px" class=""><g><path d="m419.707031 216.785156h-32.210937l-252.71875-206.6875c-7.960938-6.511718-18.007813-10.097656-28.292969-10.097656h-5.773437c-19.507813 0-36.609376 12.480469-42.5625 31.054688l-7.019532 21.90625c-17.71875 11.691406-28.511718 31.527343-28.511718 53.011718v6.179688l-22.617188 22.617187v40.824219c0 29.0625 23.644531 52.710938 52.707031 52.710938h38.058594c-11.984375 31.347656-18.195313 64.738281-18.195313 98.652343v139.5c0 24.777344 20.15625 44.9375 44.9375 44.9375h47.382813v-30.097656h-17.652344v-40.65625l29.410157-31.03125 23.757812 62.886719.214844.539062c10 23.671875 33.066406 38.964844 58.761718 38.964844h34.921876v-30.101562h-19.96875v-69.410157l2.71875 2.070313h64.039062c5.152344 8.421875 11.332031 16.296875 18.492188 23.457031l18.140624 18.140625v25.742188h-12.414062v30.101562h50.507812c22.742188 0 41.238282-18.5 41.238282-41.238281v-18.117188l42.203125-117.367187v-38.933594c0-43.867188-35.6875-79.558594-79.554688-79.558594zm-175.472656 261.507813c-6.921875-3.480469-12.578125-9.304688-15.785156-16.730469l-28.792969-76.226562 16.316406-17.214844 28.265625 21.484375v88.6875zm224.925781-148.261719-42.199218 117.367188v23.363281c0 6.140625-4.996094 11.136719-11.140626 11.136719h-7.996093v-38.210938l-26.957031-26.957031c-18.039063-18.039063-27.96875-42.019531-27.96875-67.53125v-45.839844h-30.101563v45.839844c0 12.105469 1.710937 23.945312 5 35.257812h-40.597656l-50.851563-38.65625c11.765625-15.597656 18.148438-34.488281 18.148438-54.371093v-59.59375h-30.101563v59.59375c0 16.140624-6.285156 31.3125-17.695312 42.726562l-89.5625 94.484375v52.632813c-8.007813-.199219-14.464844-6.761719-14.464844-14.816407v-139.5c0-46.316406 12.992187-91.539062 37.582031-130.785156l-25.511718-15.980469c-3.6875 5.886719-7.136719 11.898438-10.355469 18.011719h-51.679688c-12.464843 0-22.605469-10.144531-22.605469-22.609375v-28.355469l22.617188-22.621093v-.109376h34.898438v-30.097656h-32.828126c2.769532-7.519531 8.191407-13.921875 15.484376-17.859375l5.929687-3.207031 10.609375-33.101562c1.945312-6.066407 7.53125-10.144532 13.898438-10.144532h5.773437c3.359375 0 6.636719 1.171875 9.238281 3.300782l58.269532 47.65625c-30.953126 8.796874-53.691407 37.296874-53.691407 71.027343h30.097657c0-24.121093 19.625-43.746093 43.75-43.746093h13.199218l169.40625 138.550781h42.953125c27.269531 0 49.453125 22.1875 49.453125 49.457031zm0 0" data-original="#000000" class="active-path" data-old_color="#000000" fill="#7CA4E1"/></g> </svg>
